<svg width="301" height="512" viewBox="0 0 301 512" fill="none" xmlns="http://www.w3.org/2000/svg">
<path fill-rule="evenodd" clip-rule="evenodd" d="M34.0081 2.04636C29.6121 3.73436 26.2791 6.40136 16.8911 15.7444C2.4931 30.0724 0.532104 33.4944 0.495104 44.3464C0.475104 50.1774 0.983106 53.4314 2.36711 56.3464C3.65411 59.0594 35.6771 91.8074 101.862 158.099L199.459 255.851L101.754 353.599C25.7511 429.633 3.6001 452.346 2.0301 455.846C0.6811 458.854 0.00810159 462.502 0.00010159 466.846C-0.0198984 477.1 2.90411 482.166 16.7851 495.935C26.5491 505.622 29.4181 507.88 34.2561 509.685C41.5491 512.408 47.3211 512.421 54.6801 509.73C60.2231 507.703 65.4291 502.656 177.673 390.48C307.337 260.893 299.948 269.029 299.948 255.846C299.948 242.663 307.337 250.799 177.673 121.208C65.3731 8.97136 60.2261 3.98136 54.6801 1.95836C47.4481 -0.680643 41.0411 -0.653643 34.0081 2.04636Z" fill="#2D6A4F"/>
</svg>
