<svg width="405" height="299" viewBox="0 0 405 299" fill="none" xmlns="http://www.w3.org/2000/svg">
<path fill-rule="evenodd" clip-rule="evenodd" d="M13.0907 1.26777C-0.125252 5.48077 -4.25225 24.9878 5.73375 36.0418C12.4048 43.4248 3.81374 43.0308 151.612 42.7308L283.544 42.4628L287.544 40.3188C296.403 35.5718 300.221 26.5788 297.933 15.8518C296.521 9.23379 290.675 2.78678 284.541 1.08378C278.925 -0.475219 18.0037 -0.298229 13.0907 1.26777ZM314.28 85.8948C308.838 87.2638 303.442 91.5098 301.165 96.2128C299.073 100.535 299.044 101.441 299.044 163.464V226.333L282.785 210.262C266.192 193.859 263.435 191.974 256.044 191.974C248.481 191.974 240.104 197.419 236.937 204.392C234.352 210.082 234.499 217.642 237.294 222.805C239.873 227.568 305.953 294.3 310.544 296.777C312.43 297.795 315.957 298.396 320.044 298.396C324.131 298.396 327.658 297.795 329.544 296.777C334.135 294.3 400.215 227.568 402.794 222.805C405.589 217.642 405.736 210.082 403.151 204.392C399.984 197.419 391.607 191.974 384.044 191.974C376.653 191.974 373.896 193.859 357.303 210.262L341.044 226.333V163.305V100.278L338.716 95.8698C334.604 88.0828 323.535 83.5648 314.28 85.8948ZM11.5028 108.843C-3.83425 115.809 -3.83425 140.117 11.5028 147.083C15.3378 148.825 20.7497 148.92 117.637 148.941L219.729 148.963L224.137 146.635C227.011 145.118 229.572 142.647 231.5 139.535C234.017 135.472 234.456 133.752 234.456 127.963C234.456 122.174 234.017 120.454 231.5 116.391C229.572 113.279 227.011 110.808 224.137 109.291L219.729 106.963L117.637 106.985C20.7497 107.006 15.3378 107.101 11.5028 108.843ZM13.9148 214.511C3.39075 217.789 -2.61925 230.812 1.19675 242.064C3.12275 247.741 6.09375 251.078 11.4448 253.569L16.5438 255.943L84.5437 255.948C131.297 255.951 153.793 255.605 156.541 254.842C162.675 253.139 168.521 246.692 169.933 240.074C172.221 229.347 168.403 220.354 159.544 215.607C155.577 213.481 154.976 213.461 87.0437 213.266C29.7737 213.101 17.7848 213.305 13.9148 214.511Z" fill="#89C7A9"/>
</svg>
