<svg width="494" height="512" viewBox="0 0 494 512" fill="none" xmlns="http://www.w3.org/2000/svg">
<path fill-rule="evenodd" clip-rule="evenodd" d="M105.972 1.70653C101.017 4.02553 96.9312 8.71653 95.5572 13.6635C94.9892 15.7085 94.5222 21.9485 94.5192 27.5285L94.5132 37.6735L74.7632 38.1195C52.6572 38.6175 46.8942 39.8355 34.5132 46.6225C24.5412 52.0895 12.7852 64.4885 7.65821 74.9475C-0.662794 91.9225 0.0132062 74.2405 0.0132062 274.883C0.0132062 475.159 -0.631794 457.903 7.46821 474.433C14.9162 489.636 29.3562 502.198 46.3952 508.298L55.0132 511.383H246.513H438.013L446.013 508.567C468.481 500.659 485.067 482.812 491.258 459.883C492.901 453.8 493.013 441.945 493.013 274.883C493.013 74.1835 493.694 91.9345 485.337 74.8825C479.462 62.8955 467.553 51.0225 455.513 45.1475C443.787 39.4255 435.193 37.8825 415.055 37.8825H398.513L398.507 27.6325C398.501 15.4575 397.429 10.9955 393.412 6.42053C384.741 -3.45447 368.203 -1.37047 362.548 10.3095C360.857 13.8025 360.513 16.4905 360.513 26.1985V37.8825H246.592H132.672L132.342 25.0545C132.044 13.4345 131.786 11.8965 129.603 8.71453C124.135 0.744531 114.274 -2.17947 105.972 1.70653ZM94.6912 87.6325C95.1432 101.305 96.6672 105.533 102.72 109.918C110 115.192 119.265 114.674 126.175 108.607C131.538 103.898 132.513 100.637 132.513 87.4145V75.8825H246.513H360.513V87.4145C360.513 100.637 361.488 103.898 366.851 108.607C373.902 114.797 383.598 115.107 391.104 109.381C396.405 105.338 397.898 100.847 398.335 87.6325L398.724 75.8825H414.581C428.102 75.8825 431.243 76.1835 435.9 77.9265C442.78 80.5005 448.926 86.3995 452.362 93.7275L455.013 99.3825L455.339 130.133L455.666 160.883H246.513H37.3602L37.7022 130.133C37.9992 103.284 38.2692 98.8755 39.8242 95.3825C42.6622 89.0105 46.3632 84.2475 50.7152 81.3675C57.8792 76.6265 60.9122 76.0285 78.1582 75.9525L94.3022 75.8825L94.6912 87.6325ZM455.285 324.633L455.013 450.383L452.4 455.883C449.269 462.474 443.875 468.031 437.613 471.116L433.013 473.383H246.513H60.0132L55.3862 471.103C48.9892 467.952 43.7122 462.534 40.6242 455.95L38.0132 450.383L37.7412 324.633L37.4682 198.883H246.513H455.558L455.285 324.633Z" fill="#2D6A4F"/>
</svg>
