<svg width="512" height="512" viewBox="0 0 512 512" fill="none" xmlns="http://www.w3.org/2000/svg">
<path fill-rule="evenodd" clip-rule="evenodd" d="M16.086 1.56362C7.264 4.67962 0 15.1936 0 24.8466C0 26.8506 0.73 30.7076 1.622 33.4186C3.11 37.9396 12.219 47.3326 111.864 147.099L220.483 255.851L112.341 364.099C52.862 423.636 3.441 473.86 2.515 475.71C-2.01 484.75 0.101 497.001 7.451 504.351C14.427 511.327 23.812 513.437 33.572 510.225C38.093 508.737 47.486 499.628 147.25 399.986L256 291.368L364.75 399.986C464.514 499.628 473.907 508.737 478.428 510.225C488.175 513.433 497.574 511.325 504.526 504.373C511.478 497.421 513.586 488.022 510.378 478.275C508.89 473.754 499.781 464.361 400.139 364.597L291.521 255.847L400.139 147.097C499.781 47.3326 508.89 37.9396 510.378 33.4186C513.586 23.6716 511.478 14.2726 504.526 7.32062C497.574 0.368618 488.175 -1.73938 478.428 1.46862C473.907 2.95662 464.514 12.0656 364.75 111.708L256 220.326L147.25 111.708C47.486 12.0656 38.093 2.95662 33.572 1.46862C27.529 -0.520382 21.9 -0.489382 16.086 1.56362Z" fill="black"/>
</svg>
