<svg width="406" height="299" viewBox="0 0 406 299" fill="none" xmlns="http://www.w3.org/2000/svg">
<path fill-rule="evenodd" clip-rule="evenodd" d="M312.965 0.937835C310.997 1.67484 308.522 2.93183 307.465 3.73083C306.409 4.53083 290.378 20.4788 271.842 39.1708C249.59 61.6108 237.614 74.4158 236.592 76.8618C234.523 81.8128 234.671 89.2118 236.937 94.2018C240.104 101.175 248.481 106.62 256.044 106.62C263.435 106.62 266.192 104.735 282.785 88.3318L299.044 72.2608V135.289V198.316L301.372 202.724C302.889 205.598 305.36 208.159 308.472 210.087C312.535 212.604 314.255 213.043 320.044 213.043C325.833 213.043 327.553 212.604 331.616 210.087C334.728 208.159 337.199 205.598 338.716 202.724L341.044 198.316V135.235V72.1538L356.794 87.8548C373.195 104.204 376.717 106.631 384.044 106.631C399.429 106.631 410.041 89.1758 402.794 75.7888C400.22 71.0338 334.073 4.22884 329.681 1.94884C325.639 -0.149163 317.231 -0.658165 312.965 0.937835ZM13.0907 43.9358C-0.125252 48.1488 -4.25225 67.6558 5.73375 78.7098C12.1758 85.8408 10.8877 85.7348 87.6647 85.4138C154.879 85.1338 155.583 85.1098 159.544 82.9868C168.403 78.2398 172.221 69.2468 169.933 58.5198C168.521 51.9018 162.675 45.4548 156.541 43.7518C150.997 42.2128 17.9597 42.3838 13.0907 43.9358ZM11.5028 151.511C-3.83425 158.477 -3.83425 182.785 11.5028 189.751C15.3378 191.493 20.7497 191.588 117.637 191.609L219.729 191.631L224.137 189.303C227.011 187.786 229.572 185.315 231.5 182.203C234.017 178.14 234.456 176.42 234.456 170.631C234.456 164.842 234.017 163.122 231.5 159.059C229.572 155.947 227.011 153.476 224.137 151.959L219.729 149.631L117.637 149.653C20.7497 149.674 15.3378 149.769 11.5028 151.511ZM13.9148 257.186C3.39575 260.446 -2.62125 273.477 1.19675 284.732C3.12275 290.409 6.09375 293.746 11.4448 296.237L16.5438 298.611L148.544 298.616C242.176 298.619 281.706 298.297 284.541 297.51C290.675 295.807 296.521 289.36 297.933 282.742C300.221 272.015 296.403 263.022 287.544 258.275L283.544 256.131L151.044 255.941C38.3848 255.78 17.8508 255.967 13.9148 257.186Z" fill="#89C7A9"/>
</svg>
