<svg width="494" height="512" viewBox="0 0 494 512" fill="none" xmlns="http://www.w3.org/2000/svg">
<path fill-rule="evenodd" clip-rule="evenodd" d="M184.846 1.0799C149.118 4.7419 113.532 18.7839 82.8458 41.3299C71.4748 49.6849 50.5848 70.2999 42.1008 81.5399C15.7508 116.448 1.66377 156.037 0.148774 199.443C-0.753226 225.306 2.41777 247.576 10.4418 271.716C20.4538 301.838 37.6538 329.589 60.4268 352.362C93.8128 385.747 136.004 406.255 183.136 412.005C195.824 413.554 228.256 412.714 240.346 410.524C268.46 405.432 293.475 395.881 316.101 381.599L324.855 376.073L386.204 439.796C419.946 474.843 448.955 504.698 450.668 506.14C461.407 515.176 480.088 512.686 488.285 501.127C492.403 495.32 493.679 491.517 493.77 484.78C493.916 473.923 493.208 473.067 428.382 405.786C395.952 372.127 368.389 343.365 367.131 341.87L364.843 339.151L370.198 332.297C406.493 285.84 420.558 224.729 408.715 164.943C402.797 135.07 387.304 102.228 367.547 77.6739C323.297 22.6819 254.694 -6.0791 184.846 1.0799ZM225.868 55.3829C290.733 64.0199 342.107 111.504 355.872 175.544C358.607 188.269 359.628 213.72 357.89 225.857C352.909 260.649 338.26 290.367 314.265 314.362C291.13 337.498 262.434 352.171 229.882 357.508C218.961 359.299 194.973 359.307 183.262 357.524C141.064 351.098 102.842 326.605 79.3588 290.943C70.9668 278.198 66.4538 268.97 61.8118 255.064C56.7618 239.937 54.7528 228.607 54.1088 211.611C50.8768 126.392 119.62 54.7819 205.346 54.0659C210.846 54.0199 220.081 54.6119 225.868 55.3829Z" fill="#2D6A4F"/>
</svg>
